PathFileType	3	(X/Y/Z)	D:\VICON_DB\Goncalves\Pilot01\09-03-2026\bw_sq_120_01.trc
DataRate	CameraRate	NumFrames	NumMarkers	Units	OrigDataRate	OrigDataStartFrame	OrigNumFrames
200.0	200.0	12	34	mm	200.0	92	730	
Frame#	Time	LASI			RASI			LPSI			RPSI			LTHI			LTHAP			LTHAD			LKNE			LKNM			LTIB			LTIAP			LTIAD			LANK			LMED			LHEE			LTOE			LFMH			LSMH			LVMH			RTHI			RTHAP			RTHAD			RKNE			RKNM			RTIB			RTIAP			RTIAD			RANK			RMED			RHEE			RTOE			RFMH			RSMH			RVMH			
		X1	Y1	Z1	X2	Y2	Z2	X3	Y3	Z3	X4	Y4	Z4	X5	Y5	Z5	X6	Y6	Z6	X7	Y7	Z7	X8	Y8	Z8	X9	Y9	Z9	X10	Y10	Z10	X11	Y11	Z11	X12	Y12	Z12	X13	Y13	Z13	X14	Y14	Z14	X15	Y15	Z15	X16	Y16	Z16	X17	Y17	Z17	X18	Y18	Z18	X19	Y19	Z19	X20	Y20	Z20	X21	Y21	Z21	X22	Y22	Z22	X23	Y23	Z23	X24	Y24	Z24	X25	Y25	Z25	X26	Y26	Z26	X27	Y27	Z27	X28	Y28	Z28	X29	Y29	Z29	X30	Y30	Z30	X31	Y31	Z31	X32	Y32	Z32	X33	Y33	Z33	X34	Y34	Z34	
92	0.455	132.19165	887.13098	-1082.6219	131.69928	888.95825	-1342.5989				322.05847	942.13446	-1246.1241	140.16035	698.10809	-1020.9758	160.73633	767.96436	-1022.2396	182.96039	636.49597	-988.24518	216.30048	476.69864	-989.93256				263.43475	288.20975	-950.17084	190.49998	353.47391	-1002.5447	219.23114	255.90384	-965.51416	288.80191	73.531128	-947.67151				324.1857	62.571846	-1004.4148	206.13016	71.562462	-955.45801	147.74149	45.404156	-975.42651				168.82329	25.063671	-897.47351	177.40024	632.2218	-1425.6368	141.20992	753.72382	-1386.9177	119.17441	664.12262	-1382.5847	216.6642	492.67456	-1417.0763				239.99355	301.81674	-1456.0894	188.40245	345.38641	-1405.212	196.04095	264.64145	-1416.5856	280.18591	64.31591	-1452.8335				310.27628	58.056664	-1407.0465	185.88338	69.467636	-1449.7587	132.91391	49.446186	-1432.5566				156.02283	17.958935	-1503.3126
93	0.46	132.31078	887.12354	-1082.6355	131.88448	888.95605	-1342.5918				322.28183	942.09631	-1246.0854	140.18347	698.14117	-1020.9621	160.8047	767.97614	-1022.2423	182.93541	636.51471	-988.1947	216.18512	476.69626	-989.85864				263.34262	288.19107	-950.12811	190.3873	353.45203	-1002.4693	219.14972	255.8802	-965.46759	288.77997	73.535011	-947.67639				324.17319	62.58147	-1004.4162	206.12178	71.559784	-955.45795	147.73079	45.403084	-975.42188				168.82295	25.064058	-897.46423	177.40001	632.24866	-1425.6854	141.33688	753.76727	-1386.9264	119.19803	664.20319	-1382.6362	216.49673	492.6651	-1417.1116				239.82857	301.79385	-1456.1281	188.20305	345.34879	-1405.2639	195.8933	264.59753	-1416.6224	280.17371	64.318031	-1452.8394				310.28848	58.066643	-1407.0796	185.89764	69.466141	-1449.744	132.9068	49.44701	-1432.5613				156.01726	17.964279	-1503.3164
94	0.465	132.43823	887.11511	-1082.6504	132.07841	888.95374	-1342.5873				322.51318	942.0611	-1246.0482	140.21082	698.17511	-1020.9522	160.88141	767.98651	-1022.2497	182.91096	636.53436	-988.14435	216.06834	476.69385	-989.78357				263.25046	288.17236	-950.08472	190.27364	353.42981	-1002.3925	219.06694	255.85609	-965.42084	288.75955	73.538963	-947.68005				324.16006	62.591328	-1004.4175	206.11331	71.557198	-955.45782	147.72	45.401928	-975.41779				168.82265	25.064692	-897.45502	177.39941	632.2757	-1425.7355	141.46835	753.81317	-1386.9359	119.22151	664.2851	-1382.6904	216.32722	492.65585	-1417.1487				239.66144	301.77118	-1456.1686	188.00203	345.3103	-1405.3173	195.74472	264.55267	-1416.6605	280.16125	64.319794	-1452.8459				310.29764	58.07608	-1407.1099	185.91458	69.463844	-1449.7281	132.9005	49.447895	-1432.5652				156.01137	17.969898	-1503.3202
95	0.47	132.5743	887.10583	-1082.6661	132.28081	888.95093	-1342.5853				322.75208	942.0296	-1246.0127	140.24281	698.21008	-1020.9459	160.96651	767.99579	-1022.2612	182.88751	636.55469	-988.09393	215.95068	476.69144	-989.70734				263.15872	288.15366	-950.04034	190.15921	353.4071	-1002.3147	218.98306	255.83133	-965.3739	288.74051	73.543007	-947.68231				324.14642	62.601307	-1004.4187	206.10475	71.554626	-955.45758	147.70924	45.400574	-975.4137				168.82231	25.065342	-897.44604	177.39839	632.30341	-1425.788	141.60426	753.86151	-1386.9465	119.24478	664.36871	-1382.7478	216.15628	492.64682	-1417.188				239.49258	301.74893	-1456.2109	187.79967	345.27133	-1405.3726	195.59572	264.50668	-1416.7003	280.14856	64.321182	-1452.8529				310.30365	58.085011	-1407.1376	185.9333	69.460785	-1449.7115	132.8951	49.448723	-1432.5685				156.00542	17.975485	-1503.3241
96	0.475	132.71922	887.09552	-1082.6825	132.49133	888.94751	-1342.5859				322.99808	942.0022	-1245.9789	140.27994	698.24585	-1020.9431	161.05998	768.00409	-1022.2762	182.8656	636.57581	-988.04333	215.83276	476.68906	-989.62982				263.06754	288.13492	-949.99487	190.04436	353.38419	-1002.2357	218.89851	255.80579	-965.32672	288.72284	73.547073	-947.68329				324.13217	62.611343	-1004.4196	206.09616	71.55201	-955.45703	147.69872	45.398949	-975.40942				168.82204	25.065786	-897.43689	177.39703	632.33179	-1425.8435	141.74471	753.91229	-1386.9583	119.26794	664.45374	-1382.8086	215.98466	492.63821	-1417.229				239.3226	301.72711	-1456.2555	187.59631	345.23218	-1405.4296	195.44676	264.45941	-1416.7413	280.13562	64.322235	-1452.8604				310.30664	58.093479	-1407.1627	185.95314	69.457047	-1449.6947	132.89078	49.449398	-1432.5707				155.99944	17.980865	-1503.3279
97	0.48	132.87325	887.08411	-1082.6995	132.70959	888.94293	-1342.589				323.25049	941.97961	-1245.9469	140.32265	698.28253	-1020.9431	161.16174	768.01196	-1022.2941	182.84587	636.5976	-987.99237	215.71532	476.68674	-989.5509				262.97723	288.11627	-949.94806	189.92944	353.36142	-1002.1556	218.81374	255.77951	-965.27917	288.70645	73.551117	-947.68304				324.11758	62.621445	-1004.4199	206.08755	71.549278	-955.45599	147.68854	45.397026	-975.40503				168.82176	25.065859	-897.4278	177.39542	632.36121	-1425.9021	141.88968	753.96558	-1386.9708	119.29114	664.54047	-1382.873	215.81323	492.63028	-1417.2726				239.15222	301.70569	-1456.3018	187.39273	345.19333	-1405.4886	195.29848	264.41092	-1416.7837	280.12247	64.322983	-1452.8684				310.30676	58.101547	-1407.1853	185.97356	69.452728	-1449.6777	132.88754	49.449875	-1432.5719				155.9935	17.985958	-1503.3315
98	0.485	133.03653	887.07172	-1082.7163	132.93518	888.93719	-1342.5944				323.50864	941.96289	-1245.9165	140.37143	698.32031	-1020.9454	161.2717	768.02014	-1022.314	182.82892	636.62	-987.94086	215.59897	476.68451	-989.4704				262.88806	288.09778	-949.8999	189.8149	353.33936	-1002.0746	218.72919	255.7525	-965.23096	288.69135	73.555054	-947.68164				324.1026	62.631687	-1004.4199	206.07904	71.546425	-955.45459	147.67879	45.39484	-975.40015				168.82153	25.06543	-897.41858	177.39384	632.39191	-1425.9646	142.03914	754.0213	-1386.9851	119.31471	664.62872	-1382.9418	215.64297	492.62311	-1417.318				238.9823	301.68457	-1456.35	187.18993	345.15515	-1405.5492	195.15147	264.36169	-1416.8268	280.10907	64.323563	-1452.8771				310.30438	58.109283	-1407.2061	185.99416	69.447945	-1449.6605	132.88548	49.450127	-1432.5719				155.98769	17.990671	-1503.3348
99	0.49	133.20912	887.05829	-1082.7333	133.16772	888.92993	-1342.6019				323.77145	941.95355	-1245.8877	140.42673	698.35925	-1020.9495	161.38947	768.02924	-1022.335	182.81538	636.64301	-987.88855	215.48441	476.68225	-989.38849				262.80017	288.07938	-949.85022	189.70119	353.31863	-1001.9927	218.64536	255.72511	-965.18188	288.67743	73.558685	-947.6792				324.08743	62.642159	-1004.4194	206.07066	71.543419	-955.45245	147.66956	45.392509	-975.39478				168.82133	25.064436	-897.40918	177.39261	632.42438	-1426.0305	142.19283	754.07953	-1387.001	119.3391	664.71851	-1383.0143	215.47493	492.617	-1417.3655				238.81381	301.66345	-1456.3994	186.9892	345.11777	-1405.6107	195.00642	264.31238	-1416.8704	280.09561	64.324043	-1452.8861				310.2998	58.116787	-1407.2244	186.01451	69.442924	-1449.6437	132.88454	49.450165	-1432.5707				155.9821	17.994839	-1503.338
100	0.495	133.39108	887.04388	-1082.7502	133.40678	888.92133	-1342.6111				324.03763	941.95325	-1245.8608	140.48895	698.39935	-1020.9547	161.51488	768.03979	-1022.3558	182.80594	636.66663	-987.83557	215.37221	476.67999	-989.30499				262.71371	288.06125	-949.79895	189.58879	353.30008	-1001.9096	218.5627	255.69757	-965.13171	288.66467	73.561874	-947.6759				324.07217	62.652985	-1004.4185	206.06253	71.540245	-955.44965	147.66084	45.390167	-975.38885				168.82115	25.062897	-897.39978	177.39214	632.45898	-1426.0999	142.35037	754.14032	-1387.0194	119.36487	664.80969	-1383.0908	215.31033	492.61194	-1417.4148				238.64784	301.64206	-1456.4501	186.79208	345.08115	-1405.6725	194.86397	264.26379	-1416.9138	280.08206	64.324554	-1452.8955				310.29349	58.124172	-1407.2411	186.03415	69.438034	-1449.6274	132.88448	49.450058	-1432.5687				155.97699	17.998262	-1503.3406
101	0.5	133.58229	887.02844	-1082.7668	133.65193	888.91138	-1342.6217				324.30588	941.96362	-1245.8356	140.55855	698.44098	-1020.9602	161.64789	768.05249	-1022.3759	182.80127	636.69098	-987.78156	215.26286	476.6778	-989.22021				262.62881	288.04346	-949.74615	189.47821	353.28445	-1001.8257	218.48164	255.67023	-965.08038	288.65295	73.564453	-947.67175				324.05695	62.664268	-1004.4172	206.05464	71.536919	-955.44592	147.65268	45.387989	-975.38239				168.82103	25.060898	-897.39014	177.39313	632.49622	-1426.173	142.51125	754.20361	-1387.041	119.39267	664.90222	-1383.1711	215.15031	492.60806	-1417.4657				238.4855	301.61993	-1456.5012	186.60005	345.0451	-1405.7336	194.72476	264.21674	-1416.9574	280.06845	64.325172	-1452.9053				310.28571	58.13158	-1407.2561	186.05255	69.433609	-1449.6118	132.88492	49.449871	-1432.5662				155.97255	18.000822	-1503.3429
102	0.505	133.78267	887.01221	-1082.7831	133.90274	888.90021	-1342.6334				324.57498	941.98572	-1245.8123	140.63579	698.48413	-1020.9655	161.78877	768.06732	-1022.3948	182.80203	636.71594	-987.72668	215.15671	476.67584	-989.13409				262.54568	288.02612	-949.69189	189.36989	353.27222	-1001.7408	218.40248	255.64343	-965.02771	288.64227	73.566345	-947.66705				324.04184	62.676132	-1004.4159	206.04707	71.53347	-955.44159	147.64508	45.386177	-975.37555				168.82095	25.058578	-897.38043	177.39636	632.53625	-1426.2488	142.67503	754.26929	-1387.0662	119.42329	664.99567	-1383.2546	214.99611	492.60544	-1417.5179				238.32782	301.59683	-1456.5524	186.41437	345.00952	-1405.7935	194.58946	264.17175	-1417.0001	280.05496	64.325958	-1452.9154				310.27673	58.139099	-1407.2698	186.0694	69.430008	-1449.5974	132.88542	49.449673	-1432.5635				155.96887	18.002449	-1503.3444
103	0.51	133.99205	886.99506	-1082.799	134.15889	888.88812	-1342.6462				324.84384	942.01965	-1245.7916	140.72105	698.52893	-1020.9698	161.9382	768.08411	-1022.4122	182.80888	636.74176	-987.67078	215.05402	476.67416	-989.04669				262.46429	288.00931	-949.63623	189.26425	353.26364	-1001.6552	218.32541	255.61746	-964.97388	288.63248	73.567589	-947.66193				324.02692	62.688679	-1004.4146	206.03978	71.529953	-955.4364	147.63802	45.384918	-975.36829				168.82089	25.056105	-897.37067	177.40291	632.57886	-1426.327	142.84145	754.33716	-1387.0956	119.45757	665.09003	-1383.3408	214.84895	492.60428	-1417.5709				238.17557	301.5726	-1456.6033	186.2361	344.97452	-1405.8516	194.45863	264.12936	-1417.0425	280.0415	64.326965	-1452.9258				310.26685	58.146824	-1407.2825	186.08453	69.427475	-1449.584	132.88548	49.449512	-1432.5613				155.96606	18.003113	-1503.3455
